# xmcd CD database file
#
# Track frame offsets:
#	150
#	24082
#	44415
#	68348
#
# Disc length: 1179 seconds
#
# Revision: 0
# Processed by: cddbd v1.5.1PL2 Copyright (c) Steve Scherf et al.
# Submitted via: CDex 1.51
#
DISCID=23049904
DTITLE=美郷あき - ふたりが忘れない
DYEAR=2005
DGENRE=アニメ
TTITLE0=ふたりが忘れない
TTITLE1=Confusion Lovers
TTITLE2=ふたりが忘れない<off Vocal>
TTITLE3=Confusion Lovers<off Vocal>
EXTD=YEAR: 2005
EXTT0=
EXTT1=
EXTT2=
EXTT3=
PLAYORDER=
